<?xml version="1.0" standalone="no"?><!-- Generator: Adobe Fireworks CS6, Export SVG Extension by Aaron Beall (http://fireworks.abeall.com) . Version: 0.6.1  --><!DOCTYPE svg PUBLIC "-//W3C//DTD SVG 1.1//EN" "http://www.w3.org/Graphics/SVG/1.1/DTD/svg11.dtd"><svg id="Untitled-Page%201" viewBox="0 0 300 150" style="background-color:#ffffff00" version="1.1"	xmlns="http://www.w3.org/2000/svg" xmlns:xlink="http://www.w3.org/1999/xlink" xml:space="preserve"	x="0px" y="0px" width="300px" height="150px">	<defs>		<filter id="filter1" x="-100%" y="-100%" width="300%" height="300%">			<!-- Drop Shadow -->			<feOffset result="out" in="SourceGraphic" dx="1" dy="0"/>			<feColorMatrix result="out" in="out" type="matrix" values="0 0 0 0 0  0 0 0 0 0  0 0 0 0 0  0 0 0 0.4 0"/>			<feGaussianBlur result="out" in="out" stdDeviation="1"/>			<feBlend in="SourceGraphic" in2="out" mode="normal" result="Drop_Shadow1"/>		</filter>		<linearGradient id="gradient1" x1="50%" y1="0%" x2="50%" y2="100%">			<stop stop-color="#a6794b" stop-opacity="1" offset="0%"/>			<stop stop-color="#8c6901" stop-opacity="1" offset="98.9899%"/>			<stop stop-color="#8c6900" stop-opacity="1" offset="100%"/>		</linearGradient>		<linearGradient id="gradient2" x1="50%" y1="0%" x2="50%" y2="100%">			<stop stop-color="#a6794b" stop-opacity="1" offset="0%"/>			<stop stop-color="#8c6901" stop-opacity="1" offset="98.9899%"/>			<stop stop-color="#8c6900" stop-opacity="1" offset="100%"/>		</linearGradient>		<linearGradient id="gradient3" x1="50%" y1="0%" x2="50%" y2="100%">			<stop stop-color="#a6794b" stop-opacity="1" offset="0%"/>			<stop stop-color="#8c6901" stop-opacity="1" offset="98.9899%"/>			<stop stop-color="#8c6900" stop-opacity="1" offset="100%"/>		</linearGradient>		<linearGradient id="gradient4" x1="50%" y1="0%" x2="50%" y2="100%">			<stop stop-color="#a6794b" stop-opacity="1" offset="0%"/>			<stop stop-color="#8c6901" stop-opacity="1" offset="98.9899%"/>			<stop stop-color="#8c6900" stop-opacity="1" offset="100%"/>		</linearGradient>		<linearGradient id="gradient5" x1="50%" y1="0%" x2="50%" y2="100%">			<stop stop-color="#a6794b" stop-opacity="1" offset="0%"/>			<stop stop-color="#8c6901" stop-opacity="1" offset="98.9899%"/>			<stop stop-color="#8c6900" stop-opacity="1" offset="100%"/>		</linearGradient>		<linearGradient id="gradient6" x1="50%" y1="0%" x2="50%" y2="100%">			<stop stop-color="#a6794b" stop-opacity="1" offset="0%"/>			<stop stop-color="#8c6901" stop-opacity="1" offset="98.9899%"/>			<stop stop-color="#8c6900" stop-opacity="1" offset="100%"/>		</linearGradient>		<linearGradient id="gradient7" x1="50.0002%" y1="0%" x2="50.0002%" y2="100%">			<stop stop-color="#a6794b" stop-opacity="1" offset="0%"/>			<stop stop-color="#8c6901" stop-opacity="1" offset="98.9899%"/>			<stop stop-color="#8c6900" stop-opacity="1" offset="100%"/>		</linearGradient>		<filter id="filter2" x="-100%" y="-100%" width="300%" height="300%">			<!-- Drop Shadow -->			<feOffset result="out" in="SourceGraphic" dx="1" dy="0"/>			<feColorMatrix result="out" in="out" type="matrix" values="0 0 0 0 0  0 0 0 0 0  0 0 0 0 0  0 0 0 0.4 0"/>			<feGaussianBlur result="out" in="out" stdDeviation="1"/>			<feBlend in="SourceGraphic" in2="out" mode="normal" result="Drop_Shadow2"/>		</filter>		<linearGradient id="gradient8" x1="50%" y1="0%" x2="50%" y2="100%">			<stop stop-color="#00880f" stop-opacity="1" offset="0%"/>			<stop stop-color="#00880f" stop-opacity="1" offset="14.1414%"/>			<stop stop-color="#009c08" stop-opacity="1" offset="100%"/>		</linearGradient>		<linearGradient id="gradient9" x1="50%" y1="0%" x2="50%" y2="100%">			<stop stop-color="#00880f" stop-opacity="1" offset="0%"/>			<stop stop-color="#00880f" stop-opacity="1" offset="14.1414%"/>			<stop stop-color="#009c08" stop-opacity="1" offset="100%"/>		</linearGradient>		<linearGradient id="gradient10" x1="50.0001%" y1="0%" x2="50.0001%" y2="100%">			<stop stop-color="#00880f" stop-opacity="1" offset="0%"/>			<stop stop-color="#00880f" stop-opacity="1" offset="14.1414%"/>			<stop stop-color="#009c08" stop-opacity="1" offset="100%"/>		</linearGradient>		<linearGradient id="gradient11" x1="50%" y1="0%" x2="50%" y2="100%">			<stop stop-color="#00880f" stop-opacity="1" offset="0%"/>			<stop stop-color="#00880f" stop-opacity="1" offset="14.1414%"/>			<stop stop-color="#009c08" stop-opacity="1" offset="100%"/>		</linearGradient>		<linearGradient id="gradient12" x1="50%" y1="0%" x2="50%" y2="100%">			<stop stop-color="#00880f" stop-opacity="1" offset="0%"/>			<stop stop-color="#00880f" stop-opacity="1" offset="14.1414%"/>			<stop stop-color="#009c08" stop-opacity="1" offset="100%"/>		</linearGradient>		<linearGradient id="gradient13" x1="50%" y1="0%" x2="50%" y2="100%">			<stop stop-color="#00880f" stop-opacity="1" offset="0%"/>			<stop stop-color="#00880f" stop-opacity="1" offset="14.1414%"/>			<stop stop-color="#009c08" stop-opacity="1" offset="100%"/>		</linearGradient>		<linearGradient id="gradient14" x1="50%" y1="0%" x2="50%" y2="100%">			<stop stop-color="#00880f" stop-opacity="1" offset="0%"/>			<stop stop-color="#00880f" stop-opacity="1" offset="14.1414%"/>			<stop stop-color="#009c08" stop-opacity="1" offset="100%"/>		</linearGradient>	</defs>	<g id="Layer%201">		<g filter="url(#filter1)">			<path d="M 65.4369 42.9288 C 65.4369 46.1933 63.2856 47.8249 58.986 47.8249 L 53.3581 47.8249 L 53.3581 38.094 L 58.986 38.094 C 63.2856 38.094 65.4369 39.7062 65.4369 42.9288 ZM 69.2114 72.4874 L 82.4569 72.4874 L 74.9761 58.1675 C 73.5577 55.4741 71.7045 53.7203 69.4175 52.9035 C 74.8612 50.7011 77.5839 47.3351 77.5839 42.8063 C 77.5839 34.7279 71.3613 30.6892 58.9169 30.6892 L 41.6223 30.6892 L 41.6211 64.2558 L 53.3585 64.2558 L 53.3581 55.4741 C 53.6327 55.4741 53.861 55.4544 54.0443 55.4133 L 54.7305 55.4133 C 57.0175 55.4133 58.7797 55.7804 60.0151 56.5145 C 61.2044 57.2093 62.2796 58.5143 63.2407 60.4308 L 69.2114 72.4874 ZM 41.6211 72.427 L 41.6223 72.4874 L 53.3581 72.4874 L 53.3585 72.427 L 41.6211 72.427 Z" fill="url(#gradient1)"/>			<path d="M 175.4119 42.5553 L 175.4519 37.6842 C 175.4519 37.6842 177.0944 36.5464 177.8334 38.8987 C 177.8334 38.8987 177.6028 36.0903 175.6059 36.1854 C 175.6059 36.1854 178.6369 32.7395 179.062 29.87 C 179.062 29.87 176.1142 35.0943 175.5616 34.6155 L 175.5616 32.6067 C 175.5616 32.6067 180.5244 31.0127 182.7746 34.6478 C 182.7746 34.6478 182.5627 30.2597 175.5544 31.4089 C 175.5544 31.4089 175.3071 15.4825 176.1142 11.7524 C 176.1142 11.7524 178.4058 9.3832 181.9304 14.9313 C 181.9304 14.9313 179.5956 10.126 177.2184 10.2218 C 177.2184 10.2218 180.4968 7.5576 180.625 3.6358 C 180.625 3.6358 180.6586 6.2994 175.9434 10.8916 C 175.9434 10.8916 176.543 5.3722 177.8591 4.6079 C 177.8591 4.6079 176.1142 5.1508 175.1807 8.7865 C 175.1807 8.7865 174.2381 4.7066 173.6867 4.3236 C 173.6867 4.3236 174.9669 8.5955 174.7124 11.4656 C 174.7124 11.4656 171.571 4.0998 170.2956 2.8571 C 170.2956 2.8571 168.0615 0.0325 166.5687 0.0325 C 166.5687 0.0325 163.3801 0.345 162.3179 1.2057 C 162.3179 1.2057 167.7891 -0.9688 171.1022 5.3448 C 174.4154 11.6565 170.5777 4.4355 170.5777 4.4355 L 171.1022 5.3448 C 171.1022 5.3448 173.7782 10.4145 174.4154 13.0925 C 175.0526 15.7705 174.3328 12.7759 174.3328 12.7759 L 174.3728 15.2922 C 174.3728 15.2922 169.9644 10.1404 168.2615 7.5145 C 168.2615 7.5145 172.5879 14.049 174.2873 17.3973 L 174.0447 22.9291 C 174.0447 22.9291 172.0501 21.2939 170.5219 19.7706 C 170.5219 19.7706 172.5879 23.4242 173.9489 25.9112 C 173.9489 25.9112 172.9293 25.3377 172.6956 24.8589 C 172.4622 24.3806 170.1895 23.0621 170.1895 23.0621 C 170.1895 23.0621 172.9718 27.3465 173.9489 28.1109 L 173.8627 36.2423 C 173.8627 36.2423 171.9514 37.009 170.7202 35.8605 C 170.7202 35.8605 171.2297 37.6058 173.8657 37.8865 L 173.7729 42.5553 L 175.4119 42.5553 Z" fill="#9e7951"/>			<path d="M 118.0186 56.7107 C 118.0186 59.7382 117.3605 62.4377 116.0448 64.8084 C 114.7294 67.179 112.762 69.0517 110.1412 70.4263 C 107.5208 71.8004 104.3269 72.4879 100.5604 72.4879 C 96.7936 72.4879 93.5997 71.8004 90.9789 70.4263 C 88.3582 69.0517 86.3955 67.179 85.0899 64.8084 C 83.7846 62.4377 83.1319 59.7382 83.1319 56.7107 C 83.1319 54.4194 83.4952 52.338 84.2231 50.4649 C 84.9504 48.5925 86.0562 46.9347 87.5419 45.4893 C 89.0256 44.0459 90.8543 42.9343 93.0273 42.1579 C 95.1988 41.3816 97.7103 40.992 100.5604 40.992 C 103.43 40.992 105.9655 41.3863 108.1686 42.1732 C 110.3701 42.96 112.1936 44.0596 113.639 45.4751 C 115.0837 46.8894 116.1748 48.5426 116.9119 50.4353 C 117.6491 52.3277 118.0186 54.4194 118.0186 56.7107 ZM 106.688 56.7107 C 106.688 54.3001 106.1647 52.4126 105.119 51.0483 C 104.0726 49.6834 102.5527 49.0014 100.5604 49.0014 C 98.5867 49.0014 97.0779 49.6834 96.0317 51.0483 C 94.9848 52.4126 94.4622 54.3001 94.4622 56.7107 C 94.4622 59.1006 94.99 60.993 96.0468 62.3873 C 97.1022 63.7816 98.6073 64.4796 100.5604 64.4796 C 102.5527 64.4796 104.0726 63.787 105.119 62.4032 C 106.1647 61.0181 106.688 59.1214 106.688 56.7107 Z" fill="url(#gradient2)"/>			<path d="M 157.209 56.7107 C 157.209 59.7382 156.5508 62.4377 155.2354 64.8084 C 153.9199 67.179 151.9527 69.0517 149.3318 70.4263 C 146.7112 71.8004 143.5175 72.4879 139.7505 72.4879 C 135.9837 72.4879 132.7903 71.8004 130.1698 70.4263 C 127.549 69.0517 125.5859 67.179 124.2804 64.8084 C 122.9746 62.4377 122.322 59.7382 122.322 56.7107 C 122.322 54.4194 122.6863 52.338 123.4139 50.4649 C 124.1404 48.5925 125.2472 46.9347 126.7318 45.4893 C 128.2169 44.0459 130.045 42.9343 132.2172 42.1579 C 134.3894 41.3816 136.9005 40.992 139.7505 40.992 C 142.6205 40.992 145.156 41.3863 147.3588 42.1732 C 149.5602 42.96 151.3844 44.0596 152.8298 45.4751 C 154.2734 46.8894 155.3646 48.5426 156.1019 50.4353 C 156.8396 52.3277 157.209 54.4194 157.209 56.7107 ZM 145.8786 56.7107 C 145.8786 54.3001 145.3554 52.4126 144.3097 51.0483 C 143.2628 49.6834 141.7434 49.0014 139.7505 49.0014 C 137.7779 49.0014 136.2685 49.6834 135.2216 51.0483 C 134.1753 52.4126 133.6519 54.3001 133.6519 56.7107 C 133.6519 59.1006 134.1808 60.993 135.2364 62.3873 C 136.2923 63.7816 137.7966 64.4796 139.7505 64.4796 C 141.7434 64.4796 143.2628 63.787 144.3097 62.4032 C 145.3554 61.0181 145.8786 59.1214 145.8786 56.7107 Z" fill="url(#gradient3)"/>			<path d="M 186.8038 70.1863 C 185.6873 70.7255 184.1484 71.2432 182.1856 71.7412 C 180.2223 72.2387 178.3433 72.4879 176.5505 72.4879 C 168.7965 72.4879 164.9208 68.7038 164.9208 61.132 L 164.9208 49.0014 L 160.0488 49.0014 L 160.0488 47.1187 L 174.4875 32.4164 L 175.713 32.4164 L 175.713 41.5309 L 185.9971 41.5309 L 185.9971 49.0014 L 175.713 49.0014 L 175.713 58.7422 C 175.713 59.8775 175.7826 60.7946 175.9223 61.4915 C 176.0621 62.189 176.4556 62.7718 177.103 63.2398 C 177.7513 63.7076 178.7313 63.9427 180.0474 63.9427 C 181.7624 63.9427 184.014 63.2245 186.8038 61.7906 L 186.8038 70.1863 Z" fill="url(#gradient4)"/>			<path d="M 215.3221 63.0749 C 215.3221 65.8636 214.3005 68.1307 212.2582 69.8729 C 210.2161 71.6168 207.1807 72.4879 203.1548 72.4879 C 200.9027 72.4879 198.9004 72.2831 197.1466 71.8754 C 195.3926 71.4673 193.4797 70.8843 191.4067 70.1271 L 191.4067 62.4772 C 193.2199 63.5132 194.7957 64.2999 196.1304 64.838 C 197.465 65.377 198.9306 65.645 200.5246 65.645 C 203.2157 65.645 204.5607 64.9081 204.5607 63.4338 C 204.5607 62.9357 204.3662 62.4925 203.978 62.104 C 203.5895 61.7156 202.9104 61.2779 201.9442 60.7891 C 200.9777 60.3015 199.6876 59.7191 198.0738 59.0414 C 196.0805 58.1648 194.3862 56.9895 192.9914 55.5152 C 191.5965 54.0409 190.8981 52.2389 190.8981 50.1066 C 190.8981 48.5925 191.363 47.1387 192.2887 45.7438 C 193.2161 44.3492 194.6159 43.2093 196.4893 42.3231 C 198.3634 41.4362 200.6243 40.992 203.2749 40.992 C 203.9129 40.992 204.7251 41.0378 205.7112 41.1271 C 206.6973 41.2167 207.9442 41.4512 209.4476 41.8298 C 210.9527 42.2077 212.3832 42.7458 213.7386 43.4425 L 213.7386 50.8834 C 213.1002 50.5048 212.5674 50.1865 212.1384 49.9271 C 211.7096 49.6683 211.1374 49.379 210.4204 49.0604 C 209.703 48.7415 208.8601 48.4585 207.8937 48.209 C 206.9274 47.9605 205.9359 47.8353 204.9192 47.8353 C 203.6837 47.8353 202.8363 48.0748 202.3781 48.5525 C 201.92 49.0305 201.6903 49.5085 201.6903 49.9871 C 201.6903 50.4857 201.9293 50.9481 202.4083 51.3771 C 202.8868 51.805 203.9529 52.338 205.6065 52.9753 C 207.9984 53.8924 209.9113 54.8326 211.3456 55.799 C 212.7811 56.7655 213.8034 57.8262 214.4106 58.9811 C 215.0185 60.1366 215.3221 61.5024 215.3221 63.0749 Z" fill="url(#gradient5)"/>			<path d="M 263.6974 72.427 C 265.1084 71.2579 266.3538 69.9933 267.4336 68.633 C 269.8852 65.5469 271.1113 62.2048 271.1113 58.6102 C 271.1113 56.7775 270.6613 54.8534 269.7673 52.8339 C 268.8691 50.8171 267.5255 48.9336 265.7344 47.1866 C 263.9422 45.4397 261.6275 44.0054 258.7874 42.8864 C 255.9487 41.7673 252.7197 41.2079 249.1028 41.2079 C 244.2011 41.2079 239.9249 42.0819 236.2729 43.8279 C 232.6219 45.575 229.8496 47.9158 227.9571 50.8506 C 226.0612 53.7851 225.1168 56.9304 225.1168 60.2884 C 225.1168 62.0185 225.3953 63.7076 225.9537 65.3507 C 226.5118 66.9977 227.5629 68.6391 228.5139 70.3134 C 228.9186 71.026 229.4239 71.7242 229.9982 72.427 L 263.6974 72.427 ZM 257.0136 59.0168 C 257.0136 62.5785 254.408 65.4959 249.2031 67.7691 C 248.1902 66.7178 247.1665 65.6313 246.136 64.5119 C 245.1044 63.3926 244.284 62.3407 243.6761 61.3568 C 243.0683 60.3739 242.7641 59.4237 242.7641 58.5077 C 242.7641 57.1512 243.3385 55.8708 244.4873 54.6666 C 245.6356 53.4623 247.3773 52.8591 249.7118 52.8591 C 251.3336 52.8591 252.7093 53.1747 253.8439 53.8014 C 254.9753 54.4283 255.7874 55.2171 256.277 56.1667 C 256.7665 57.1183 257.0136 58.0672 257.0136 59.0168 Z" fill="url(#gradient6)"/>			<path d="M 276.1593 72.6638 C 276.1593 72.6638 277.1006 71.2075 278.1282 69.3963 L 295.5218 69.4215 C 295.5218 69.4215 294.722 71.0092 293.7518 72.6638 L 276.1593 72.6638 Z" fill="url(#gradient7)"/>		</g>		<g filter="url(#filter2)">			<path d="M 176.0068 110.1547 L 174.6623 110.1547 L 174.6623 117.0995 L 172.9818 119.4526 C 172.9818 119.4526 166.7065 117.9954 165.0256 119.4526 C 165.0256 119.4526 162.1123 122.2523 159.6474 125.5001 C 159.6474 125.5001 155.5006 127.5165 154.3797 125.5001 C 154.3797 125.5001 152.4745 128.9726 161.7764 127.8516 C 161.7764 127.8516 167.1543 126.0607 172.3641 121.1325 L 174.551 119.7886 L 174.1015 129.981 C 174.1015 129.981 173.6532 130.0921 172.3641 133.3404 C 172.3641 133.3404 169.5709 134.2371 165.1121 141.6292 C 165.1121 141.6292 171.7486 142.9733 173.429 133.9003 L 174.2145 132.8923 L 174.4381 133.7886 L 175.3337 133.2286 L 176.0068 134.6849 C 176.0068 134.6849 176.3427 149.3581 180.0396 147.7907 C 180.0396 147.7907 181.7224 149.5818 184.5231 147.2297 C 184.5231 147.2297 181.61 147.3425 180.9375 147.0061 L 179.4796 145.4369 C 179.4796 145.4369 179.4796 137.709 177.2389 136.2525 L 175.4465 131.7729 L 175.5579 120.1234 C 175.5579 120.1234 176.4551 121.6915 179.0323 122.3643 C 179.0323 122.3643 185.7553 130.7456 192.2553 129.2987 C 192.2553 129.2987 195.2803 127.7405 195.9523 126.2837 C 195.9523 126.2837 192.2553 128.1886 189.9023 125.6114 C 189.9023 125.6114 185.6424 119.1153 183.1793 118.6683 C 183.1793 118.6683 181.0558 117.814 178.5532 118.5718 C 178.1959 118.6819 177.8314 118.8227 177.4642 119.0024 C 177.4642 119.0024 176.2315 119.0041 175.895 117.5473 C 175.5579 116.0915 176.0068 110.1547 176.0068 110.1547 Z" fill="#489426"/>			<path d="M 117.2922 104.391 C 116.5551 106.2844 115.4641 107.9374 114.0194 109.3521 C 112.574 110.7661 110.7501 111.8663 108.549 112.6542 C 106.3459 113.4414 103.8104 113.8343 100.9406 113.8343 C 98.0906 113.8343 95.5793 113.4453 93.4071 112.669 C 91.2347 111.8914 89.4065 110.7808 87.922 109.3372 C 86.4375 107.8924 85.3306 106.2337 84.6038 104.362 C 83.8761 102.4889 83.5125 100.4074 83.5125 98.1156 C 83.5125 95.0881 84.1645 92.3881 85.4703 90.0179 C 86.7759 87.6478 88.7386 85.7751 91.3594 84.4 C 93.9801 83.0253 97.1739 82.3389 100.9406 82.3389 C 104.7076 82.3389 107.901 83.0253 110.5217 84.4 C 113.142 85.7751 115.1096 87.6478 116.4253 90.0179 C 117.7409 92.3881 118.3992 95.0881 118.3992 98.1156 C 118.3992 100.4074 118.0298 102.4988 117.2922 104.391 ZM 105.4993 92.4237 C 104.453 91.0392 102.9331 90.3466 100.9406 90.3466 C 98.9868 90.3466 97.4822 91.0442 96.4266 92.4397 C 95.3705 93.8328 94.8417 95.7258 94.8417 98.1156 C 94.8417 100.5257 95.3651 102.4136 96.4118 103.7785 C 97.4584 105.1439 98.9679 105.8254 100.9406 105.8254 C 102.9331 105.8254 104.453 105.1439 105.4993 103.7785 C 106.5455 102.4136 107.0683 100.5257 107.0683 98.1156 C 107.0683 95.7056 106.5455 93.8081 105.4993 92.4237 Z" fill="url(#gradient8)"/>			<path d="M 155.9231 104.391 C 155.1854 106.2844 154.0935 107.9374 152.65 109.3521 C 151.2046 110.7661 149.3806 111.8663 147.179 112.6542 C 144.976 113.4414 142.4404 113.8343 139.5705 113.8343 C 136.7204 113.8343 134.209 113.4453 132.0368 112.669 C 129.865 111.8914 128.0368 110.7808 126.5518 109.3372 C 125.0674 107.8924 123.9606 106.2337 123.2338 104.362 C 122.5062 102.4889 122.1425 100.4074 122.1425 98.1156 C 122.1425 95.0881 122.7945 92.3881 124.1003 90.0179 C 125.4059 87.6478 127.3689 85.7751 129.9891 84.4 C 132.6099 83.0253 135.8037 82.3389 139.5705 82.3389 C 143.3374 82.3389 146.5309 83.0253 149.1516 84.4 C 151.7729 85.7751 153.7396 87.6478 155.0549 90.0179 C 156.371 92.3881 157.0286 95.0881 157.0286 98.1156 C 157.0286 100.4074 156.6587 102.4988 155.9231 104.391 ZM 144.1299 92.4237 C 143.0831 91.0392 141.5631 90.3466 139.5705 90.3466 C 137.6168 90.3466 136.1123 91.0442 135.0566 92.4397 C 134.0002 93.8328 133.4718 95.7258 133.4718 98.1156 C 133.4718 100.5257 133.9952 102.4136 135.0418 103.7785 C 136.0879 105.1439 137.5976 105.8254 139.5705 105.8254 C 141.5631 105.8254 143.0831 105.1439 144.1299 103.7785 C 145.1751 102.4136 145.6984 100.5257 145.6984 98.1156 C 145.6984 95.7056 145.1751 93.8081 144.1299 92.4237 Z" fill="url(#gradient9)"/>			<path d="M 187.1832 111.6937 C 186.0673 112.2322 184.5276 112.7505 182.5649 113.2469 C 180.6015 113.7455 178.7237 113.9948 176.9308 113.9948 C 169.1769 113.9948 165.3006 110.2105 165.3006 102.6393 L 165.3006 90.5082 L 160.4274 90.5082 L 160.4274 88.6257 L 174.8673 73.9234 L 176.0922 73.9234 L 176.0922 83.0368 L 186.3764 83.0368 L 186.3764 90.5082 L 176.0922 90.5082 L 176.0922 100.2495 C 176.0922 101.3848 176.1624 102.3009 176.3016 102.9988 C 176.4409 103.6958 176.8356 104.2776 177.4834 104.7466 C 178.1313 105.2156 179.1124 105.4489 180.4266 105.4489 C 182.1416 105.4489 184.3932 104.7318 187.1832 103.2975 L 187.1832 111.6937 Z" fill="url(#gradient10)"/>			<path d="M 293.3001 112.653 L 276.536 96.7711 C 280.88 92.8205 284.8142 88.0071 288.3379 82.3314 L 270.4098 82.3314 C 269.327 83.6934 268.1693 84.9296 266.8728 86.1101 L 263.2254 82.3314 L 224.0787 82.3314 C 222.5585 83.6858 221.3655 84.9202 220.5006 86.0348 C 218.3718 88.7846 217.3074 91.9383 217.3074 95.4984 C 217.3074 100.4528 219.4187 104.7088 223.6461 108.271 C 227.8721 111.8346 233.9725 113.6146 241.9513 113.6146 C 245.7035 113.6146 249.4739 113.1719 253.2596 112.2903 C 257.0454 111.4093 260.3942 109.9833 263.301 108.0163 L 267.8135 112.698 L 293.3001 112.653 ZM 253.6965 97.7014 C 250.8907 99.8042 248.306 101.056 244.6369 100.7147 C 241.4113 100.4145 239.4946 100.0792 237.9046 98.3655 C 236.3162 96.6528 235.2365 95.3915 235.2365 93.7298 C 235.2365 90.9132 237.2025 87.9529 241.6985 85.0684 L 253.6965 97.7014 Z" fill="url(#gradient11)"/>			<g>				<path d="M 215.7212 104.398 C 215.7212 107.1874 214.6996 109.453 212.6568 111.1956 C 210.613 112.9402 207.5786 113.8108 203.5533 113.8108 C 201.3018 113.8108 199.299 113.6068 197.5455 113.1982 C 195.7911 112.7905 193.8782 112.2071 191.8053 111.4499 L 191.8053 103.8005 C 193.6185 104.8365 195.1942 105.6232 196.5282 106.1617 C 197.864 106.6992 199.3296 106.9683 200.9235 106.9683 C 203.6131 106.9683 204.9586 106.2318 204.9586 104.757 C 204.9586 104.2585 204.7641 103.8157 204.3754 103.4267 C 203.9873 103.0388 203.31 102.6005 202.3431 102.1123 C 201.3757 101.6248 200.0865 101.0412 198.4724 100.3635 C 196.4795 99.4874 194.7852 98.3123 193.3904 96.838 C 191.9954 95.3641 191.2972 93.5604 191.2972 91.4292 C 191.2972 89.916 191.7603 88.4614 192.6878 87.067 C 193.6146 85.6727 195.0133 84.5321 196.8879 83.645 C 198.7607 82.7591 201.0227 82.3153 203.6738 82.3153 C 204.3108 82.3153 205.1236 82.3602 206.1097 82.4501 C 207.0962 82.5399 208.341 82.7733 209.8466 83.152 C 211.3506 83.5306 212.7811 84.0691 214.1366 84.7655 L 214.1366 92.2062 C 213.4987 91.8281 212.9658 91.5092 212.5367 91.2502 C 212.1081 90.9916 211.5364 90.7027 210.8184 90.3839 C 210.1015 90.0651 209.2592 89.7813 208.2922 89.5319 C 207.3254 89.2838 206.3339 89.1578 205.3172 89.1578 C 204.0822 89.1578 203.2354 89.3977 202.7767 89.8754 C 202.3185 90.3544 202.0892 90.8322 202.0892 91.3099 C 202.0892 91.8085 202.3283 92.2714 202.8068 92.6993 C 203.2853 93.1276 204.3503 93.6602 206.0049 94.298 C 208.3969 95.214 210.3103 96.1564 211.7452 97.1218 C 213.1797 98.0887 214.2008 99.1494 214.8085 100.3043 C 215.417 101.4598 215.7212 102.8242 215.7212 104.398 Z" fill="url(#gradient12)"/>			</g>			<g>				<path d="M 36.6982 99.9998 C 36.6982 102.897 35.9572 105.4024 34.4761 107.5183 C 32.9936 109.6353 30.9272 111.2543 28.2755 112.3796 C 25.6233 113.5045 22.5818 114.0677 19.1507 114.0677 C 18.1923 114.0677 17.0164 114.0053 15.6245 113.883 C 14.2317 113.7603 12.3822 113.4217 10.0761 112.864 C 7.7693 112.3073 5.3684 111.4839 2.8729 110.3914 L 2.8729 99.0322 C 5.2124 100.4803 7.5134 101.6835 9.7748 102.6399 C 12.0365 103.5987 14.4598 104.0776 17.0449 104.0776 C 19.4291 104.0776 20.9723 103.6821 21.6739 102.8914 C 22.376 102.1009 22.7271 101.3596 22.7271 100.6692 C 22.7271 99.4217 22.1256 98.3687 20.9219 97.5118 C 19.7186 96.655 17.9695 95.7691 15.6743 94.8551 C 13.1342 93.7863 10.9059 92.6236 8.9891 91.3641 C 7.073 90.1062 5.5079 88.5304 4.2941 86.6365 C 3.0787 84.744 2.4719 82.5044 2.4719 79.9217 C 2.4719 77.4265 3.0845 75.1714 4.3105 73.1553 C 5.5353 71.1402 7.4073 69.5305 9.9253 68.3268 C 12.4433 67.1248 15.5184 66.5232 19.1507 66.5232 C 21.7347 66.5232 24.1255 66.7742 26.3202 67.2749 C 28.5144 67.7767 30.3257 68.3383 31.7518 68.9624 C 33.1775 69.5859 34.1581 70.0768 34.693 70.4329 L 34.693 81.2913 C 32.7988 79.9325 30.6871 78.7179 28.3586 77.6491 C 26.0302 76.5801 23.5399 76.0464 20.8893 76.0464 C 19.1507 76.0464 17.8912 76.3801 17.1115 77.0485 C 16.3315 77.7165 15.9421 78.5404 15.9421 79.5206 C 15.9421 80.4327 16.3315 81.225 17.1115 81.8923 C 17.8912 82.5603 19.2845 83.375 21.2897 84.3309 C 24.8543 86.0032 27.7066 87.5054 29.8464 88.8416 C 31.9855 90.1785 33.6619 91.7208 34.8763 93.4696 C 36.0906 95.2178 36.6982 97.3945 36.6982 99.9998 Z" fill="url(#gradient13)"/>			</g>			<g>				<path d="M 78.0693 113.8343 L 65.9907 113.8343 L 65.9907 98.0571 C 65.9907 97.9371 65.996 97.8224 66.0074 97.7128 C 66.0188 97.6032 66.0244 97.3688 66.0244 97.0101 C 66.0244 95.557 65.6772 94.2213 64.9841 93.0061 C 64.2905 91.7913 62.9712 91.1833 61.0249 91.1833 C 59.5039 91.1833 58.1616 91.6369 56.9988 92.5427 C 55.8355 93.4499 54.728 94.59 53.6773 95.9648 L 53.6773 113.8343 L 41.5982 113.8343 L 41.6007 66.6947 L 53.5836 66.6947 L 53.6773 87.7772 C 55.6675 85.8847 57.636 84.595 59.5824 83.9075 C 61.5284 83.2199 63.5969 82.8763 65.7895 82.8763 C 73.9758 82.8763 78.0693 86.9705 78.0693 95.1581 L 78.0693 113.8343 Z" fill="url(#gradient14)"/>			</g>		</g>	</g></svg>